<svg width="690" height="553" viewBox="0 0 690 553" fill="none" xmlns="http://www.w3.org/2000/svg">
<g clip-path="url(#clip0_15686_49934)">
<path d="M207.32 484.14V483.14C207.32 474.051 205.53 465.052 202.052 456.655C198.574 448.258 193.476 440.628 187.049 434.201C180.622 427.775 172.992 422.677 164.596 419.198C156.199 415.72 147.199 413.93 138.11 413.93V413.93C119.752 413.93 102.145 406.637 89.1641 393.656C76.1828 380.675 68.89 363.068 68.89 344.71V344.71V138.2C68.8927 101.453 83.4918 66.2108 109.476 40.2263C135.461 14.2419 170.702 -0.357211 207.45 -0.359863V-0.359863C244.152 -0.359923 279.355 14.2029 305.331 40.1321C331.307 66.0612 345.934 101.238 346 137.94V139.19C346.034 157.19 349.613 175.008 356.533 191.625C363.453 208.242 373.578 223.333 386.331 236.037C399.083 248.741 414.213 258.809 430.856 265.666C447.499 272.523 465.33 276.034 483.33 276H483.57C501.692 275.93 519.651 279.431 536.421 286.302C553.19 293.172 568.443 303.279 581.306 316.044C594.17 328.81 604.393 343.984 611.393 360.7C618.392 377.416 622.031 395.348 622.1 413.47V414.83C622.17 432.953 618.669 450.911 611.798 467.681C604.928 484.451 594.821 499.703 582.056 512.566C569.29 525.43 554.116 535.654 537.4 542.653C520.684 549.652 502.752 553.291 484.63 553.36H276.53C258.173 553.357 240.57 546.064 227.591 533.083C214.611 520.102 207.32 502.497 207.32 484.14Z" fill="#00D2FF"/>
<path d="M525.83 68.8101H152.53C146.56 68.8101 141.72 73.6499 141.72 79.6201V375.22C141.72 381.19 146.56 386.03 152.53 386.03H525.83C531.8 386.03 536.64 381.19 536.64 375.22V79.6201C536.64 73.6499 531.8 68.8101 525.83 68.8101Z" fill="#E3FCF7" stroke="#001F2C" stroke-width="1.38" stroke-miterlimit="10"/>
<path d="M611.65 162.67H559.03V178.19H611.65V162.67Z" fill="#00F14C"/>
<path d="M495.95 136.8H304.96V152.32H495.95V136.8Z" fill="#00F14C"/>
<path d="M611.65 136.8H503.54V152.32H611.65V136.8Z" fill="#00F14C"/>
<path d="M480.81 188.54H428.19V204.06H480.81V188.54Z" fill="#00F14C"/>
<path d="M551.42 162.67H304.96V178.19H551.42V162.67Z" fill="#00F14C"/>
<path d="M421.35 188.54H304.96V204.06H421.35V188.54Z" fill="#00F14C"/>
<path d="M585.29 214.41H304.96V229.93H585.29V214.41Z" fill="#00F14C"/>
<path d="M585.29 240.28H304.96V255.8H585.29V240.28Z" fill="#00F14C"/>
<path d="M475.79 266.16H304.96V281.68H475.79V266.16Z" fill="#00F14C"/>
<path d="M154.1 84.9598C156.618 84.9598 158.66 82.9183 158.66 80.3998C158.66 77.8814 156.618 75.8398 154.1 75.8398C151.582 75.8398 149.54 77.8814 149.54 80.3998C149.54 82.9183 151.582 84.9598 154.1 84.9598Z" fill="#00D2FF"/>
<path d="M166.91 84.9598C169.428 84.9598 171.47 82.9183 171.47 80.3998C171.47 77.8814 169.428 75.8398 166.91 75.8398C164.392 75.8398 162.35 77.8814 162.35 80.3998C162.35 82.9183 164.392 84.9598 166.91 84.9598Z" fill="#00D2FF"/>
<path d="M179.71 84.9598C182.228 84.9598 184.27 82.9183 184.27 80.3998C184.27 77.8814 182.228 75.8398 179.71 75.8398C177.192 75.8398 175.15 77.8814 175.15 80.3998C175.15 82.9183 177.192 84.9598 179.71 84.9598Z" fill="#00D2FF"/>
<path d="M504.829 215.52L471.683 406.616C470.529 413.272 474.988 419.602 481.643 420.757L568.329 435.792C574.984 436.946 581.315 432.487 582.469 425.832L615.615 234.735C616.769 228.08 612.31 221.75 605.655 220.595L518.969 205.56C512.314 204.405 505.983 208.865 504.829 215.52Z" fill="#001F2C"/>
<path d="M499.6 205.85L465.741 397.878C464.561 404.568 469.028 410.947 475.718 412.127L562.824 427.486C569.514 428.666 575.893 424.199 577.073 417.509L610.933 225.481C612.112 218.791 607.645 212.412 600.956 211.232L513.849 195.873C507.159 194.694 500.78 199.161 499.6 205.85Z" fill="white" stroke="#001F2C" stroke-miterlimit="10"/>
<path d="M502.018 205.789L467.991 398.762C467.082 403.918 470.525 408.835 475.681 409.744L563.674 425.26C568.83 426.169 573.747 422.726 574.656 417.57L608.682 224.597C609.591 219.441 606.148 214.524 600.992 213.615L513 198.099C507.844 197.19 502.927 200.633 502.018 205.789Z" fill="#B1FF05"/>
<path d="M495.285 297.474L488.492 336C487.338 342.543 491.707 348.782 498.25 349.936L536.776 356.729C543.319 357.883 549.558 353.514 550.712 346.971L557.505 308.445C558.659 301.902 554.29 295.663 547.747 294.509L509.221 287.716C502.678 286.562 496.439 290.931 495.285 297.474Z" fill="#001F2C"/>
<path d="M466.552 259.61L459.758 298.136C458.605 304.679 462.974 310.918 469.517 312.072L508.042 318.865C514.585 320.019 520.825 315.65 521.979 309.107L528.772 270.581C529.925 264.038 525.556 257.799 519.013 256.645L480.488 249.852C473.945 248.698 467.705 253.067 466.552 259.61Z" fill="white" stroke="#001F2C" stroke-width="0.75" stroke-miterlimit="10"/>
<path d="M555.64 218.01C558.407 218.01 560.65 215.767 560.65 213C560.65 210.233 558.407 207.99 555.64 207.99C552.873 207.99 550.63 210.233 550.63 213C550.63 215.767 552.873 218.01 555.64 218.01Z" fill="#001F2C"/>
<path d="M179.194 121.717L92.0875 137.076C85.3976 138.256 80.9306 144.635 82.1102 151.325L115.97 343.353C117.15 350.043 123.529 354.51 130.219 353.33L217.325 337.971C224.015 336.791 228.482 330.412 227.302 323.722L193.443 131.694C192.263 125.004 185.884 120.537 179.194 121.717Z" fill="#001F2C"/>
<path d="M183.395 116.053L96.2892 131.412C89.5993 132.592 85.1323 138.972 86.3119 145.661L120.172 337.689C121.351 344.379 127.731 348.846 134.421 347.666L221.527 332.307C228.217 331.128 232.684 324.748 231.504 318.058L197.644 126.031C196.465 119.341 190.085 114.874 183.395 116.053Z" fill="white" stroke="#001F2C" stroke-width="0.68" stroke-miterlimit="10"/>
<path d="M184.245 118.28L96.2524 133.795C91.0962 134.704 87.6534 139.621 88.5626 144.777L122.589 337.75C123.498 342.907 128.415 346.349 133.571 345.44L221.564 329.925C226.72 329.016 230.163 324.099 229.253 318.943L195.227 125.97C194.318 120.813 189.401 117.371 184.245 118.28Z" fill="#00ED64"/>
<path d="M134.46 124.68L145.23 122.78L146.81 131.78C147.06 133.206 146.734 134.674 145.904 135.861C145.073 137.047 143.806 137.856 142.38 138.11V138.11C140.953 138.36 139.486 138.034 138.299 137.203C137.112 136.373 136.304 135.106 136.05 133.68V133.68L134.47 124.68H134.46Z" fill="#001F2C"/>
<path d="M186.572 207.329L148.234 213.98C141.723 215.109 137.361 221.303 138.49 227.814L145.14 266.152C146.27 272.663 152.464 277.026 158.975 275.896L197.313 269.246C203.824 268.116 208.186 261.922 207.057 255.411L200.406 217.074C199.277 210.563 193.083 206.2 186.572 207.329Z" fill="#001F2C"/>
<path d="M218.211 170.754L179.883 177.402C173.369 178.532 169.005 184.728 170.135 191.242L176.783 229.569C177.912 236.083 184.108 240.447 190.622 239.318L228.95 232.67C235.463 231.54 239.828 225.344 238.698 218.83L232.05 180.502C230.92 173.989 224.724 169.624 218.211 170.754Z" fill="white" stroke="#001F2C" stroke-width="0.99" stroke-miterlimit="9.95"/>
<path d="M203.6 204.14L197.82 223.67C197.714 224.028 197.539 224.362 197.305 224.652C197.07 224.942 196.781 225.183 196.453 225.362C196.125 225.54 195.765 225.652 195.394 225.691C195.023 225.73 194.648 225.696 194.29 225.59V225.59C193.569 225.375 192.962 224.882 192.602 224.221C192.242 223.56 192.159 222.783 192.37 222.06L199.47 198.06" fill="#00F14C"/>
<path d="M203.6 204.14L197.82 223.67C197.714 224.028 197.539 224.362 197.305 224.652C197.07 224.942 196.781 225.183 196.453 225.362C196.125 225.54 195.765 225.652 195.394 225.691C195.023 225.73 194.648 225.696 194.29 225.59V225.59C193.569 225.375 192.962 224.882 192.602 224.221C192.242 223.56 192.159 222.783 192.37 222.06L199.47 198.06" stroke="#001F2C" stroke-miterlimit="10"/>
<path d="M220.763 204.174L185.637 210.204C184.086 210.47 183.044 211.944 183.31 213.495L183.314 213.515C183.58 215.066 185.053 216.108 186.605 215.841L221.731 209.812C223.282 209.546 224.324 208.072 224.058 206.521L224.054 206.501C223.788 204.95 222.315 203.908 220.763 204.174Z" fill="#00F14C" stroke="#001F2C" stroke-miterlimit="10.04"/>
<path d="M206.9 206.41C207.477 207.212 207.858 208.139 208.012 209.115C208.167 210.09 208.091 211.089 207.79 212.03L210.68 211.53L206.9 206.41Z" fill="#001F2C"/>
<path d="M194.58 214.37C195.555 214.211 196.553 214.282 197.496 214.578C198.439 214.873 199.299 215.384 200.01 216.07L200.85 213.26L194.58 214.37Z" fill="#001F2C"/>
<path d="M198.337 187.967L198.321 187.979C197.068 188.903 196.801 190.668 197.726 191.922L218.661 220.307C219.585 221.56 221.35 221.827 222.604 220.902L222.62 220.891C223.873 219.966 224.14 218.201 223.216 216.947L202.281 188.562C201.356 187.309 199.591 187.042 198.337 187.967Z" fill="#00F14C" stroke="#001F2C" stroke-width="0.99" stroke-miterlimit="9.94"/>
<path d="M199.46 198.1L202.46 188.1C202.566 187.742 202.741 187.409 202.975 187.118C203.21 186.828 203.499 186.587 203.827 186.409C204.155 186.23 204.515 186.118 204.886 186.079C205.257 186.04 205.632 186.074 205.99 186.18V186.18C206.711 186.396 207.318 186.888 207.678 187.549C208.038 188.211 208.121 188.988 207.91 189.71L203.62 204.19" fill="#00F14C"/>
<path d="M199.46 198.1L202.46 188.1C202.566 187.742 202.741 187.409 202.975 187.118C203.21 186.828 203.499 186.587 203.827 186.409C204.155 186.23 204.515 186.118 204.886 186.079C205.257 186.04 205.632 186.074 205.99 186.18V186.18C206.711 186.396 207.318 186.888 207.678 187.549C208.038 188.211 208.121 188.988 207.91 189.71L203.62 204.19" stroke="#001F2C" stroke-miterlimit="10"/>
<path d="M204.11 202.55C204.402 201.604 204.909 200.74 205.593 200.025C206.277 199.31 207.118 198.764 208.05 198.43L206.05 195.75L204.11 202.55Z" fill="#001F2C"/>
<path d="M172.92 304.55H134.29C130.491 304.543 126.699 304.877 122.96 305.55L117.59 306.55" stroke="#001F2C" stroke-miterlimit="10"/>
<path d="M166.91 315.07C172.72 315.07 177.43 310.36 177.43 304.55C177.43 298.74 172.72 294.03 166.91 294.03C161.1 294.03 156.39 298.74 156.39 304.55C156.39 310.36 161.1 315.07 166.91 315.07Z" fill="#001F2C"/>
<path d="M528.83 390.54V419.08" stroke="#001F2C" stroke-miterlimit="10"/>
<path d="M528.83 407.08C534.64 407.08 539.35 402.37 539.35 396.56C539.35 390.75 534.64 386.04 528.83 386.04C523.02 386.04 518.31 390.75 518.31 396.56C518.31 402.37 523.02 407.08 528.83 407.08Z" fill="#001F2C"/>
<path d="M166.91 292.94H131.91C118.524 292.94 105.685 298.257 96.2188 307.722C86.7523 317.186 81.4327 330.024 81.4301 343.41V418.2C81.4354 432.406 87.081 446.029 97.1262 456.074C107.171 466.119 120.794 471.765 135 471.77H279.2" stroke="#001F2C" stroke-miterlimit="10"/>
<path d="M166.91 303.46C172.72 303.46 177.43 298.75 177.43 292.94C177.43 287.13 172.72 282.42 166.91 282.42C161.1 282.42 156.39 287.13 156.39 292.94C156.39 298.75 161.1 303.46 166.91 303.46Z" fill="white" stroke="#001F2C" stroke-miterlimit="10"/>
<path d="M520.94 388V423C520.94 436.388 515.622 449.228 506.155 458.695C496.688 468.162 483.848 473.48 470.46 473.48H395.68" stroke="#001F2C" stroke-miterlimit="10"/>
<path d="M520.94 398.51C526.75 398.51 531.46 393.8 531.46 387.99C531.46 382.18 526.75 377.47 520.94 377.47C515.13 377.47 510.42 382.18 510.42 387.99C510.42 393.8 515.13 398.51 520.94 398.51Z" fill="white" stroke="#001F2C" stroke-miterlimit="10"/>
<path d="M254.18 439.89V496.39C254.18 514.39 290.36 529.02 334.99 529.02C379.62 529.02 415.8 514.41 415.8 496.38C415.8 514.38 379.62 529.02 334.99 529.02C290.36 529.02 254.19 514.41 254.18 496.39V506.09C254.18 524.09 290.36 538.72 334.99 538.72C379.62 538.72 415.8 524.11 415.8 506.09V439.89H254.18Z" fill="#001F2C"/>
<path d="M254.18 437.4V494.4C254.18 512.4 290.36 527.03 334.99 527.03C379.62 527.03 415.8 512.42 415.8 494.4V437.4H254.18Z" fill="#00F14C" stroke="#001F2C" stroke-miterlimit="10"/>
<path d="M334.99 470.04C379.62 470.04 415.8 455.431 415.8 437.41C415.8 419.389 379.62 404.78 334.99 404.78C290.36 404.78 254.18 419.389 254.18 437.41C254.18 455.431 290.36 470.04 334.99 470.04Z" fill="white" stroke="#001F2C" stroke-miterlimit="10"/>
<path d="M334.99 437.4C379.62 437.4 415.8 422.791 415.8 404.77C415.8 386.749 379.62 372.14 334.99 372.14C290.36 372.14 254.18 386.749 254.18 404.77C254.18 422.791 290.36 437.4 334.99 437.4Z" fill="#96FF00" stroke="#001F2C" stroke-width="1.48" stroke-miterlimit="10"/>
<path d="M320.38 426.16V443.41C320.38 446.84 326.92 449.63 334.99 449.63C343.06 449.63 349.6 446.84 349.6 443.41V426.16H320.38Z" fill="#96FF00" stroke="#001F2C" stroke-miterlimit="10"/>
<path d="M254.18 338.57V404.77C254.18 422.77 290.36 437.4 334.99 437.4C379.62 437.4 415.8 422.79 415.8 404.77V338.57H254.18Z" fill="#00F14C" stroke="#001F2C" stroke-miterlimit="10"/>
<path d="M334.99 371.2C379.62 371.2 415.8 356.591 415.8 338.57C415.8 320.549 379.62 305.94 334.99 305.94C290.36 305.94 254.18 320.549 254.18 338.57C254.18 356.591 290.36 371.2 334.99 371.2Z" fill="white" stroke="#001F2C" stroke-miterlimit="10"/>
<path d="M320.38 326.84V344.09C320.38 347.52 326.92 350.31 334.99 350.31C343.06 350.31 349.6 347.52 349.6 344.09V326.84H320.38Z" fill="#96FF00" stroke="#001F2C" stroke-miterlimit="10"/>
<path d="M254.18 239.74V305.94C254.18 323.94 290.36 338.57 334.99 338.57C379.62 338.57 415.8 324 415.8 305.94V239.74H254.18Z" fill="#00F14C" stroke="#001F2C" stroke-miterlimit="10"/>
<path d="M334.99 272.37C379.62 272.37 415.8 257.761 415.8 239.74C415.8 221.719 379.62 207.11 334.99 207.11C290.36 207.11 254.18 221.719 254.18 239.74C254.18 257.761 290.36 272.37 334.99 272.37Z" fill="#96FF00" stroke="#001F2C" stroke-miterlimit="10"/>
<path d="M415.79 272.38C415.79 290.38 379.62 305.01 334.99 305.01C290.36 305.01 254.18 290.4 254.18 272.38" stroke="#001F2C" stroke-miterlimit="10"/>
<path d="M415.79 372.92C415.79 390.92 379.62 405.55 334.99 405.55C290.36 405.55 254.18 390.94 254.18 372.92" stroke="#001F2C" stroke-miterlimit="10"/>
<path d="M415.79 473.46C415.79 491.46 379.62 506.09 334.99 506.09C290.36 506.09 254.18 491.48 254.18 473.46" fill="#00F14C"/>
<path d="M415.79 473.46C415.79 491.46 379.62 506.09 334.99 506.09C290.36 506.09 254.18 491.48 254.18 473.46" stroke="#001F2C" stroke-miterlimit="10"/>
<path d="M339.18 338.53V350C339.18 350 349.6 348.73 349.6 344V338L339.18 338.53Z" fill="#001F2C" stroke="#001F2C" stroke-width="0.52" stroke-miterlimit="10"/>
<path d="M339.18 437.62V449.14C339.18 449.14 349.6 447.86 349.6 443.14V437.09L339.18 437.62Z" fill="#001F2C" stroke="#001F2C" stroke-width="0.52" stroke-miterlimit="10"/>
<path d="M334.99 158.19V227.74" stroke="#001F2C" stroke-miterlimit="10"/>
<path d="M334.99 174.72C340.8 174.72 345.51 170.01 345.51 164.2C345.51 158.39 340.8 153.68 334.99 153.68C329.18 153.68 324.47 158.39 324.47 164.2C324.47 170.01 329.18 174.72 334.99 174.72Z" fill="#001F2C"/>
<path d="M334.99 164.2C340.8 164.2 345.51 159.49 345.51 153.68C345.51 147.87 340.8 143.16 334.99 143.16C329.18 143.16 324.47 147.87 324.47 153.68C324.47 159.49 329.18 164.2 334.99 164.2Z" fill="white" stroke="#001F2C" stroke-width="0.75" stroke-miterlimit="10"/>
<path d="M390.82 263.33V329.53C390.82 329.53 415.76 320.37 415.76 306.94V239.74C415.76 239.74 417.2 247 406 255.2C397.35 261.49 390.82 263.33 390.82 263.33Z" fill="#001F2C"/>
<path d="M390.82 362.16V428.36C390.82 428.36 415.76 419.21 415.76 405.77V338.57C415.76 338.57 417.2 345.84 406 354C397.35 360.32 390.82 362.16 390.82 362.16Z" fill="#001F2C"/>
<path d="M390.82 461V527.2C390.82 527.2 415.76 518.05 415.76 504.61V437.41C415.76 437.41 417.2 444.67 405.98 452.86C397.35 459.15 390.82 461 390.82 461Z" fill="#001F2C"/>
<path d="M175.61 519.83L117.29 493.07L153.46 414.26L195.71 433.65L186.23 453.2L204.07 457.81L175.61 519.83Z" fill="#96FF00" stroke="#001F2C" stroke-miterlimit="10"/>
<path d="M195.71 433.65L204.07 457.81L186.23 453.2L195.71 433.65Z" fill="#FBE9FF" stroke="#001F2C" stroke-miterlimit="10"/>
<path d="M191.14 454.47L189.12 458.63L204.07 457.81L191.14 454.47Z" fill="#001F2C"/>
<path d="M167.88 497.66L105.54 482.47L126.07 398.22L171.23 409.23L165.65 430.23L184.04 431.35L167.88 497.66Z" fill="#E3FCF7" stroke="#001F2C" stroke-miterlimit="10"/>
<path d="M171.23 409.23L184.04 431.35L165.65 430.23L171.23 409.23Z" fill="#FBE9FF" stroke="#001F2C" stroke-miterlimit="10"/>
<path d="M170.71 430.54L169.51 435.01L184.04 431.35L170.71 430.54Z" fill="#001F2C"/>
<path d="M130.56 488.56L161.26 501.74L162.93 496.45L130.56 488.56Z" fill="#001F2C"/>
<path d="M451.11 30.0398L425.77 16.7698L451.11 3.50977L476.46 16.7698L451.11 30.0398Z" fill="white" stroke="#001F2C" stroke-miterlimit="10"/>
<path d="M451.11 56.1701L425.77 42.9001L451.11 29.6401L476.46 42.9001L451.11 56.1701Z" fill="#001F2C" stroke="#001F2C" stroke-miterlimit="10"/>
<path d="M425.77 16.77V42.9L451.11 56.17V29.64L425.77 16.77Z" fill="#00F14C" stroke="#001F2C" stroke-miterlimit="10"/>
<path d="M451.11 29.64V56.17L476.46 42.9V16.77L451.11 29.64Z" fill="#001F2C" stroke="#001F2C" stroke-miterlimit="10"/>
<path d="M493.12 80.57L472.06 69.54L493.12 58.52L514.19 69.54L493.12 80.57Z" fill="#001F2C"/>
<path d="M493.12 102.28L472.06 91.25L493.12 80.23L514.19 91.25L493.12 102.28Z" fill="#001F2C"/>
<path d="M472.06 69.54V91.25L493.12 102.28V80.23L472.06 69.54Z" fill="#001F2C"/>
<path d="M493.12 80.23V102.28L514.19 91.25V69.54L493.12 80.23Z" fill="#001F2C"/>
<path d="M141.72 91.8501H536.64" stroke="#001F2C" stroke-miterlimit="10"/>
<path d="M481.6 268L476.6 295.18C476.48 295.835 476.622 296.51 476.997 297.061C477.371 297.611 477.947 297.992 478.6 298.12C478.982 298.194 479.376 298.177 479.75 298.07L510.57 289.31C511.028 289.18 511.439 288.923 511.758 288.569C512.076 288.215 512.288 287.779 512.37 287.31C512.451 286.841 512.399 286.359 512.218 285.918C512.038 285.478 511.737 285.097 511.35 284.82L485.55 266.4C485.278 266.204 484.97 266.064 484.644 265.989C484.318 265.913 483.98 265.902 483.65 265.958C483.319 266.014 483.004 266.135 482.72 266.314C482.437 266.493 482.192 266.726 482 267C481.796 267.3 481.659 267.642 481.6 268Z" fill="#00F14C" stroke="#001F2C" stroke-miterlimit="10"/>
<path d="M485.55 266.38L504.14 290.99" stroke="#001F2C" stroke-miterlimit="10"/>
<path d="M506.31 281.25L479.78 298.05" stroke="#001F2C" stroke-miterlimit="10"/>
</g>
<defs>
<clipPath id="clip0_15686_49934">
<rect width="569" height="553" fill="white" transform="translate(61)"/>
</clipPath>
</defs>
</svg>
